HIERARCHY
ROOT root
{
	OFFSET	0	13.1	24.9
	CHANNELS 6  Xposition Yposition Zposition Xrotation Yrotation Zrotation
	JOINT spine_1
	{
		OFFSET	0	9.99999	0
		CHANNELS 3  Xrotation Yrotation Zrotation
		JOINT spine_2
		{
			OFFSET	0	112	-10
			CHANNELS 3  Xrotation Yrotation Zrotation
			JOINT spine_3
			{
				OFFSET	0	206.5	19.3
				CHANNELS 3  Xrotation Yrotation Zrotation
				JOINT spine_4
				{
					OFFSET	0	110.4	14.6
					CHANNELS 3  Xrotation Yrotation Zrotation
					JOINT neck_1
					{
						OFFSET	0	71.8	-50.3
						CHANNELS 3  Xrotation Yrotation Zrotation
						JOINT neck_2
						{
							OFFSET	0	86.2	-25.8
							CHANNELS 3  Xrotation Yrotation Zrotation
							JOINT head_ee
							{
								OFFSET	0	179.8	-8.7
								CHANNELS 3  Xrotation Yrotation Zrotation
								End Site
								{
									OFFSET	1	0	0
								}
							}
						}
					}
					JOINT left_clavicle
					{
						OFFSET	-43.2	22.4	-70.8
						CHANNELS 3  Xrotation Yrotation Zrotation
						JOINT left_shoulder
						{
							OFFSET	-93.9	-5.79999	48.7
							CHANNELS 3  Xrotation Yrotation Zrotation
							JOINT left_elbow
							{
								OFFSET	-291.4	-30.8	15.2
								CHANNELS 3  Xrotation Yrotation Zrotation
								JOINT left_lowarm_twist
								{
									OFFSET	-110.7	-3.89999	13.6
									CHANNELS 3  Xrotation Yrotation Zrotation
									JOINT left_hand
									{
										OFFSET	-110.7	-3.89999	13.6
										CHANNELS 3  Xrotation Yrotation Zrotation
										JOINT left_ee
										{
											OFFSET	-80.8	-5.10001	12.1
											CHANNELS 3  Xrotation Yrotation Zrotation
											End Site
											{
												OFFSET	1	0	0
											}
										}
									}
								}
							}
						}
					}
					JOINT right_clavicle
					{
						OFFSET	43.2	22.4	-70.8
						CHANNELS 3  Xrotation Yrotation Zrotation
						JOINT right_shoulder
						{
							OFFSET	93.9	-5.79999	48.7
							CHANNELS 3  Xrotation Yrotation Zrotation
							JOINT right_elbow
							{
								OFFSET	291.4	-30.8	15.2
								CHANNELS 3  Xrotation Yrotation Zrotation
								JOINT right_lowarm_twist
								{
									OFFSET	110.7	-3.89999	13.6
									CHANNELS 3  Xrotation Yrotation Zrotation
									JOINT right_hand
									{
										OFFSET	110.7	-3.89999	13.6
										CHANNELS 3  Xrotation Yrotation Zrotation
										JOINT right_ee
										{
											OFFSET	80.8	-5.10001	12.1
											CHANNELS 3  Xrotation Yrotation Zrotation
											End Site
											{
												OFFSET	1	0	0
											}
										}
									}
								}
							}
						}
					}
				}
			}
		}
	}
	JOINT left_hip
	{
		OFFSET	-82.8	-127.5	0.300001
		CHANNELS 3  Xrotation Yrotation Zrotation
		JOINT left_knee
		{
			OFFSET	-28.2	-396.7	2.2
			CHANNELS 3  Xrotation Yrotation Zrotation
			JOINT left_ankle
			{
				OFFSET	-11.7	-411.3	35.4
				CHANNELS 3  Xrotation Yrotation Zrotation
				JOINT left_toes
				{
					OFFSET	0	-60	-88.6
					CHANNELS 3  Xrotation Yrotation Zrotation
					JOINT left_foot_ee
					{
						OFFSET	-22.5	-16.5	-42.2
						CHANNELS 3  Xrotation Yrotation Zrotation
						End Site
						{
							OFFSET	1	0	0
						}
					}
				}
			}
		}
	}
	JOINT right_hip
	{
		OFFSET	82.8	-127.5	0.300001
		CHANNELS 3  Xrotation Yrotation Zrotation
		JOINT right_knee
		{
			OFFSET	28.2	-396.7	2.2
			CHANNELS 3  Xrotation Yrotation Zrotation
			JOINT right_ankle
			{
				OFFSET	11.7	-411.3	35.4
				CHANNELS 3  Xrotation Yrotation Zrotation
				JOINT right_toes
				{
					OFFSET	0	-60	-88.6
					CHANNELS 3  Xrotation Yrotation Zrotation
					JOINT right_foot_ee
					{
						OFFSET	22.5	-16.5	-42.2
						CHANNELS 3  Xrotation Yrotation Zrotation
						End Site
						{
							OFFSET	1	0	0
						}
					}
				}
			}
		}
	}
}
MOTION
Frames: 11
Frame Time: 0.02
1372.05 701.618 -1475.22 -4.06004955921 32.6015394705 4.66740903275 -1.18859 -0.428158 -2.86193 -1.18406 -0.245256 -2.88335 -1.16788 0.424912 -2.86241 -1.17931 -0.0322879 -2.89357 -2.1738 14.4468 9.71762 -1.82221 18.4753 12.0454 -0.0 0.0 -0.0 10.7052 -4.15683 21.311 -9.64003 -17.7641 57.6548 3.82401 -62.1536 2.30522 1.01849 0.0347706 -0.125431 -0.622172 -11.4603 -9.10269 -0.0 0.0 -0.0 10.1649 -0.702572 -19.9582 -32.5089 18.2605 -49.2 0.44966 12.5577 -0.0494754 38.9973 0.298138 4.87785 -1.7573 -13.3512 5.54174 0.0 0.0 0.0 -14.8873 8.83463 -0.689071 -17.2359 0.318303 2.6159 39.417 -13.9299 -5.08053 -8.56366 0.0 0.0 -0.0 0.0 -0.0 35.1759 2.6739 -3.4694 -8.18417 -0.249452 -1.23019 -1.9966 -1.36874 -0.295797 1.5289 -0.0 -0.0 0.0 0.0 0.0 
1356.92184003 698.432 -1495.96196982 -4.31950651128 34.7203952862 4.70947848364 -1.0238 -0.658231 -2.72478 -1.0198 -0.483581 -2.7611 -0.992802 0.155984 -2.79876 -1.00362 -0.28781 -2.7883 -1.01056 15.147 9.2749 -0.627475 19.7587 11.5631 -0.0 0.0 -0.0 10.9264 -4.36807 21.7945 -10.3992 -17.0856 57.3389 3.73255 -61.5776 2.22457 0.67051 0.0231417 -0.0825074 -0.594504 -11.2369 -8.81847 -0.0 0.0 -0.0 10.2557 -0.763244 -20.1418 -33.0422 18.8053 -48.2289 0.401483 11.2486 -0.0395377 39.1773 0.307166 4.89904 -1.75727 -13.2487 5.59029 0.0 0.0 0.0 -15.3073 10.398 -1.24588 -19.3588 0.302717 2.94122 39.1514 -14.0254 -5.05971 -8.28566 0.0 0.0 -0.0 0.0 -0.0 33.8208 2.51878 -3.82714 -9.02693 -0.265098 -1.35856 -0.851677 -1.13536 -0.125908 1.91815 -0.0 -0.0 0.0 0.0 0.0 
1357.06217851 698.432 -1496.06360197 -4.29951412434 34.3347789164 4.67420648587 -1.0238 -0.658231 -2.72478 -1.0198 -0.483581 -2.7611 -0.992802 0.155984 -2.79876 -1.00362 -0.28781 -2.7883 -1.01056 15.147 9.2749 -0.627475 19.7587 11.5631 -0.0 0.0 -0.0 10.9264 -4.36807 21.7945 -10.3992 -17.0856 57.3389 3.73255 -61.5776 2.22457 0.67051 0.0231417 -0.0825074 -0.594504 -11.2369 -8.81847 -0.0 0.0 -0.0 10.2557 -0.763244 -20.1418 -33.0422 18.8053 -48.2289 0.401483 11.2486 -0.0395377 39.1773 0.307166 4.89904 -1.75727 -13.2487 5.59029 0.0 0.0 0.0 -15.3073 10.398 -1.24588 -19.3588 0.302717 2.94122 39.1514 -14.0254 -5.05971 -8.28566 0.0 0.0 -0.0 0.0 -0.0 33.8208 2.51878 -3.82714 -9.02693 -0.265098 -1.35856 -0.851677 -1.13536 -0.125908 1.91815 -0.0 -0.0 0.0 0.0 0.0 
1343.45815617 704.125 -1515.37209572 -3.72751742415 33.7882995014 4.80354293897 -1.23803 -0.485727 -2.85076 -1.23356 -0.303418 -2.87586 -1.21436 0.368843 -2.86821 -1.22582 -0.08857 -2.89045 -2.60863 14.1496 7.65139 -2.33032 19.7031 9.9035 -0.0 0.0 -0.0 10.7092 -2.80793 21.2702 -12.2666 -16.3548 57.7734 3.65431 -61.0674 2.15592 0.67446 0.0232755 -0.0829942 -0.502084 -12.2644 -8.62664 -0.0 0.0 -0.0 10.4122 -0.817251 -20.4616 -33.8775 19.5742 -46.9098 0.444627 12.4216 -0.0483869 39.2558 0.31112 4.90826 -1.79116 -12.1793 6.31367 0.0 0.0 0.0 -12.5627 14.329 -2.2822 -22.6603 0.254564 3.44546 36.6666 -13.4527 -4.81292 -8.33361 0.0 0.0 -0.0 0.0 -0.0 31.444 3.31364 -3.87698 -8.68746 -0.259023 -1.30683 6.00819 2.38453 0.879875 -0.861654 0.0 0.0 0.0 0.0 0.0 
1317.79455789 709.557 -1537.30358883 -2.88773470734 34.9808019295 3.74737172508 -1.54802 -0.387037 -2.78601 -1.54372 -0.209042 -2.80498 -1.52949 0.459674 -2.77496 -1.54024 0.0158319 -2.8127 -2.04558 13.2702 5.38324 -1.81086 19.7606 7.36629 -0.0 0.0 -0.0 10.0199 -0.923167 19.7387 -15.8196 -16.1868 60.0757 4.0494 -63.4846 2.50573 -0.188137 -0.00666691 0.0231022 -0.458077 -12.9317 -8.611 -0.0 0.0 -0.0 10.4994 -0.773703 -20.6447 -34.417 20.0428 -45.7068 0.417145 11.6756 -0.04265 40.1786 0.358584 5.01631 -1.47292 -9.64718 5.46245 0.0 0.0 0.0 -12.8025 16.9787 -2.72805 -29.6827 0.0560885 4.50423 37.8654 -14.4237 -4.95446 -7.01661 0.0 0.0 -0.0 0.0 -0.0 30.6275 3.94147 -2.22536 -8.43006 -0.254212 -1.26762 10.752 6.33615 1.57207 -2.91305 0.0 0.0 0.0 0.0 0.0 
1318.22269222 709.557 -1537.67515141 -2.87398216055 34.5873630243 3.72326512196 -1.54802 -0.387037 -2.78601 -1.54372 -0.209042 -2.80498 -1.52949 0.459674 -2.77496 -1.54024 0.0158319 -2.8127 -2.04558 13.2702 5.38324 -1.81086 19.7606 7.36629 -0.0 0.0 -0.0 10.0199 -0.923167 19.7387 -15.8196 -16.1868 60.0757 4.0494 -63.4846 2.50573 -0.188137 -0.00666691 0.0231022 -0.458077 -12.9317 -8.611 -0.0 0.0 -0.0 10.4994 -0.773703 -20.6447 -34.417 20.0428 -45.7068 0.417145 11.6756 -0.04265 40.1786 0.358584 5.01631 -1.47292 -9.64718 5.46245 0.0 0.0 0.0 -12.8025 16.9787 -2.72805 -29.6827 0.0560885 4.50423 37.8654 -14.4237 -4.95446 -7.01661 0.0 0.0 -0.0 0.0 -0.0 30.6275 3.94147 -2.22536 -8.43006 -0.254212 -1.26762 10.752 6.33615 1.57207 -2.91305 0.0 0.0 0.0 0.0 0.0 
1273.95673896 712.076 -1593.74981212 -4.0782346342 35.3281395669 4.44524592618 -0.668061 -0.0592748 -2.35085 -0.664991 0.0903939 -2.34986 -0.666953 0.609084 -2.27139 -0.67407 0.24282 -2.33903 -0.35442 13.0705 3.53512 -0.0682805 20.5241 5.17902 -0.0 0.0 -0.0 10.5297 -0.00594632 20.7539 -19.3886 -14.885 59.3983 2.60865 -52.2569 1.27974 -1.40159 -0.0514878 0.171575 -0.737939 -11.4723 -9.89898 -0.0 0.0 -0.0 11.146 2.04069 -22.1668 -33.0925 23.0803 -45.3101 0.411954 11.5342 -0.0416059 43.6337 0.551633 5.41384 -0.885027 -5.05015 3.69986 0.0 0.0 0.0 -6.13985 16.7379 -4.33156 -37.3276 -0.305564 5.62052 35.2599 -12.428 -4.6487 -5.61938 0.0 0.0 -0.0 0.0 -0.0 26.5434 5.9544 -3.35286 -11.9877 -0.305061 -1.81106 24.1676 14.823 3.4757 -4.81425 0.0 0.0 0.0 0.0 0.0 
1267.16771846 715.714 -1606.49481192 -4.64873815697 34.6372880131 4.58871108299 -0.390632 -0.204885 -2.20465 -0.38793 -0.0642173 -2.21322 -0.3839 0.417146 -2.17452 -0.390492 0.0685749 -2.21308 -0.702953 13.3682 4.17064 -0.421424 20.6173 5.93225 -0.0 0.0 -0.0 10.4914 -1.013 20.7278 -20.3123 -14.4275 58.9476 2.2375 -47.9365 0.994817 -1.16915 -0.0426586 0.143208 -0.823184 -11.0398 -10.2978 -0.0 0.0 -0.0 11.3371 2.96364 -22.624 -32.4486 25.1776 -45.3339 0.420076 11.7553 -0.0432453 43.5995 0.549607 5.40997 -0.834211 -4.06766 3.79624 0.0 0.0 0.0 -4.52967 16.5417 -3.65229 -38.7765 -0.390769 5.82624 35.7457 -11.5505 -4.6738 -5.40552 0.0 0.0 -0.0 0.0 -0.0 26.429 6.64736 -3.32214 -12.4539 -0.30922 -1.88247 25.9149 15.365 3.70256 -5.74728 0.0 0.0 0.0 0.0 0.0 
1252.27735213 720.554 -1628.49882713 -6.06628730749 34.2923909949 4.74556715636 -0.165558 -0.0608267 -2.22258 -0.162814 0.0806898 -2.22195 -0.164705 0.552362 -2.15374 -0.17112 0.205374 -2.21391 0.414741 13.2078 2.87612 0.747053 21.1537 4.38129 -0.0 0.0 -0.0 10.2551 2.41116 20.0368 -22.141 -14.4704 60.1465 2.04287 -45.3358 0.853281 -2.2945 -0.086475 0.280214 -0.682714 -10.972 -9.30754 -0.0 0.0 -0.0 11.2961 3.87405 -22.5761 -32.2235 25.7467 -45.3437 0.446891 12.4828 -0.048875 44.2906 0.591041 5.48809 -0.892846 -3.68659 4.35129 0.0 0.0 0.0 -3.23911 12.3159 -1.80344 -39.0821 -0.409407 5.86937 35.5427 -10.0858 -4.61962 -6.00884 0.0 0.0 -0.0 0.0 -0.0 25.4526 6.57114 -2.34789 -13.3494 -0.315579 -2.01971 28.4895 15.21 4.00153 -5.80945 0.0 0.0 0.0 0.0 0.0 
1246.78043999 721.726 -1650.9986418 -5.40175286679 33.0936849027 4.34231636081 -0.0783575 -0.202106 -2.19031 -0.0756907 -0.0623562 -2.19872 -0.0719851 0.404049 -2.1622 -0.0785043 0.0575864 -2.19885 -0.503311 13.6521 3.87449 -0.197408 21.3267 5.61879 -0.0 0.0 -0.0 9.78609 1.59715 19.1338 -21.3602 -11.5191 62.1161 1.7075 -40.2226 0.625276 -1.95308 -0.072897 0.238738 -0.957525 -7.30108 -9.60636 -0.0 0.0 -0.0 11.4384 4.24973 -22.9008 -32.6597 27.8277 -44.9407 0.469256 13.0865 -0.0538241 44.5784 0.608575 5.52047 -0.902172 -3.73003 4.39389 0.0 0.0 0.0 4.44067 6.30136 -5.39961 -49.472 -1.1765 7.26923 37.3426 -7.99358 -4.74628 -4.06393 0.0 0.0 -0.0 0.0 -0.0 24.3706 6.55299 -2.6175 -17.7559 -0.3156 -2.69564 33.0279 15.4612 4.50774 -4.76404 0.0 0.0 0.0 0.0 0.0 
1234.18978212 732.319 -1681.5893831 -6.56851155569 32.1354353342 5.43314172734 0.348377 -0.282479 -2.24863 0.35118 -0.138858 -2.26204 0.357813 0.325802 -2.24277 0.350795 -0.0323961 -2.26607 -0.219612 14.1737 5.78045 0.103807 20.6455 7.67399 -0.0 0.0 -0.0 9.76248 2.62589 19.0264 -23.745 -10.8209 62.1147 1.36177 -34.0011 0.416368 -3.57654 -0.139665 0.435229 -0.794547 -2.18748 -6.269 -0.0 0.0 -0.0 10.9663 5.98004 -21.9263 -31.3255 31.0852 -43.1009 0.760074 20.6322 -0.138352 47.8489 0.819151 5.88215 -0.438402 -0.456307 2.7327 0.0 0.0 0.0 15.4302 -5.96613 -4.64613 -61.1798 -2.32872 8.65413 39.3059 -0.362151 -4.81853 -3.09623 0.0 0.0 -0.0 0.0 -0.0 24.9547 5.10144 -3.04205 -23.3457 -0.240928 -3.54976 33.7495 12.976 4.51178 -4.91861 0.0 0.0 0.0 0.0 0.0 
